<mxfile host="app.diagrams.net" modified="2023-09-27T17:34:02.195Z" agent="Mozilla/5.0 (Windows NT 10.0; Win64; x64; rv:109.0) Gecko/20100101 Firefox/118.0" etag="K8skxf_YrPKlsPlVVvuD" version="21.8.2" type="google">
  <diagram name="Página-1" id="b_rS768K_Ax-rFo4-4Tb">
    <mxGraphModel grid="0" page="0" gridSize="10" guides="1" tooltips="1" connect="1" arrows="1" fold="1" pageScale="1" pageWidth="827" pageHeight="1169" math="0" shadow="0">
      <root>
        <mxCell id="0" />
        <mxCell id="1" parent="0" />
        <mxCell id="AgSntvfH1BYEUNpQKJve-6" value="" style="edgeStyle=orthogonalEdgeStyle;rounded=0;orthogonalLoop=1;jettySize=auto;html=1;exitX=-0.037;exitY=0.652;exitDx=0;exitDy=0;exitPerimeter=0;shadow=1;strokeColor=#006633;fillColor=#00994D;" edge="1" parent="1" source="DRDtM36vHlvZ7BX0mpvY-25" target="AgSntvfH1BYEUNpQKJve-5">
          <mxGeometry relative="1" as="geometry">
            <mxPoint x="300" y="140" as="sourcePoint" />
          </mxGeometry>
        </mxCell>
        <mxCell id="AgSntvfH1BYEUNpQKJve-10" value="" style="edgeStyle=orthogonalEdgeStyle;rounded=0;orthogonalLoop=1;jettySize=auto;html=1;exitX=1.025;exitY=0.087;exitDx=0;exitDy=0;exitPerimeter=0;shadow=1;strokeColor=#006633;" edge="1" parent="1" source="DRDtM36vHlvZ7BX0mpvY-25" target="AgSntvfH1BYEUNpQKJve-9">
          <mxGeometry relative="1" as="geometry">
            <mxPoint x="560" y="130" as="sourcePoint" />
          </mxGeometry>
        </mxCell>
        <mxCell id="AgSntvfH1BYEUNpQKJve-4" value="&lt;b&gt;&lt;font style=&quot;font-size: 9px;&quot;&gt;Opções de atendimento em suporte técnico:&lt;/font&gt;&lt;/b&gt;" style="rhombus;whiteSpace=wrap;html=1;verticalAlign=middle;fontSize=9;shadow=1;strokeColor=#006633;fillColor=#CCFFE6;" vertex="1" parent="1">
          <mxGeometry x="350" y="40" width="150" height="80" as="geometry" />
        </mxCell>
        <mxCell id="AgSntvfH1BYEUNpQKJve-19" value="" style="edgeStyle=orthogonalEdgeStyle;rounded=0;orthogonalLoop=1;jettySize=auto;html=1;shadow=1;strokeColor=#006633;" edge="1" parent="1" source="AgSntvfH1BYEUNpQKJve-5" target="AgSntvfH1BYEUNpQKJve-18">
          <mxGeometry relative="1" as="geometry" />
        </mxCell>
        <mxCell id="AgSntvfH1BYEUNpQKJve-5" value="&lt;b&gt;1 - Como instalar o software&lt;/b&gt;" style="whiteSpace=wrap;html=1;shadow=1;strokeColor=#006633;fillColor=#CCFFE6;" vertex="1" parent="1">
          <mxGeometry x="190" y="40" width="120" height="60" as="geometry" />
        </mxCell>
        <mxCell id="AgSntvfH1BYEUNpQKJve-24" value="" style="edgeStyle=orthogonalEdgeStyle;rounded=0;orthogonalLoop=1;jettySize=auto;html=1;shadow=1;strokeColor=#006633;" edge="1" parent="1" source="AgSntvfH1BYEUNpQKJve-7" target="AgSntvfH1BYEUNpQKJve-23">
          <mxGeometry relative="1" as="geometry">
            <Array as="points">
              <mxPoint x="345" y="220" />
              <mxPoint x="345" y="295" />
            </Array>
          </mxGeometry>
        </mxCell>
        <mxCell id="AgSntvfH1BYEUNpQKJve-7" value="&lt;b&gt;2-Como redefinir a senha?&quot;,&lt;/b&gt;" style="whiteSpace=wrap;html=1;shadow=1;strokeColor=#006633;fillColor=#CCFFE6;" vertex="1" parent="1">
          <mxGeometry x="210" y="190" width="120" height="60" as="geometry" />
        </mxCell>
        <mxCell id="AgSntvfH1BYEUNpQKJve-17" value="" style="edgeStyle=orthogonalEdgeStyle;rounded=0;orthogonalLoop=1;jettySize=auto;html=1;shadow=1;strokeColor=#006633;" edge="1" parent="1" source="AgSntvfH1BYEUNpQKJve-9" target="AgSntvfH1BYEUNpQKJve-16">
          <mxGeometry relative="1" as="geometry" />
        </mxCell>
        <mxCell id="AgSntvfH1BYEUNpQKJve-9" value="&lt;b&gt;5-Sair&lt;/b&gt;" style="whiteSpace=wrap;html=1;shadow=1;strokeColor=#006633;fillColor=#CCFFE6;" vertex="1" parent="1">
          <mxGeometry x="530" y="40" width="120" height="60" as="geometry" />
        </mxCell>
        <mxCell id="AgSntvfH1BYEUNpQKJve-12" value="" style="endArrow=classic;html=1;rounded=0;entryX=0.459;entryY=-0.014;entryDx=0;entryDy=0;entryPerimeter=0;shadow=1;strokeColor=#006633;" edge="1" parent="1" target="AgSntvfH1BYEUNpQKJve-14">
          <mxGeometry width="50" height="50" relative="1" as="geometry">
            <mxPoint x="420" y="210" as="sourcePoint" />
            <mxPoint x="550" y="240" as="targetPoint" />
          </mxGeometry>
        </mxCell>
        <mxCell id="AgSntvfH1BYEUNpQKJve-14" value="&lt;b&gt;3-Como entrar em contato conosco?&lt;/b&gt;" style="rounded=0;whiteSpace=wrap;html=1;shadow=1;strokeColor=#006633;fillColor=#CCFFE6;" vertex="1" parent="1">
          <mxGeometry x="365" y="235" width="120" height="60" as="geometry" />
        </mxCell>
        <mxCell id="AgSntvfH1BYEUNpQKJve-13" value="&lt;b&gt;4-Horário de Atendimento&lt;/b&gt;" style="rounded=0;whiteSpace=wrap;html=1;shadow=1;strokeColor=#006633;fillColor=#CCFFE6;" vertex="1" parent="1">
          <mxGeometry x="620" y="140" width="120" height="60" as="geometry" />
        </mxCell>
        <mxCell id="AgSntvfH1BYEUNpQKJve-16" value="&lt;b&gt;Obrigado por escolher nosso Suporte Técnico. Adeus !&lt;/b&gt;" style="whiteSpace=wrap;html=1;shadow=1;strokeColor=#006633;fillColor=#CCFFE6;" vertex="1" parent="1">
          <mxGeometry x="680" y="40" width="120" height="60" as="geometry" />
        </mxCell>
        <mxCell id="AgSntvfH1BYEUNpQKJve-21" value="" style="edgeStyle=orthogonalEdgeStyle;rounded=0;orthogonalLoop=1;jettySize=auto;html=1;entryX=0.538;entryY=1;entryDx=0;entryDy=0;entryPerimeter=0;shadow=1;strokeColor=#006633;" edge="1" parent="1" source="AgSntvfH1BYEUNpQKJve-18" target="DRDtM36vHlvZ7BX0mpvY-4">
          <mxGeometry relative="1" as="geometry">
            <mxPoint x="80" y="320" as="targetPoint" />
          </mxGeometry>
        </mxCell>
        <mxCell id="AgSntvfH1BYEUNpQKJve-18" value="&lt;div&gt;&lt;b&gt;-Passo 1: Faça o download do software.&lt;/b&gt;&lt;/div&gt;&lt;div&gt;&lt;br&gt;&lt;/div&gt;&lt;div&gt;&lt;b&gt;&amp;nbsp;&amp;nbsp;&amp;nbsp; -Passo 2: Execute o instalador&lt;/b&gt;&lt;/div&gt;&lt;div&gt;&lt;br&gt;&lt;/div&gt;&lt;div&gt;&lt;b&gt;&amp;nbsp;&amp;nbsp;&amp;nbsp; -Passo 3: Siga as instruções de instalação.&lt;/b&gt;&lt;/div&gt;" style="whiteSpace=wrap;html=1;shadow=1;strokeColor=#66FFB3;fillColor=#CCFFE6;" vertex="1" parent="1">
          <mxGeometry x="20" y="100" width="120" height="150" as="geometry" />
        </mxCell>
        <mxCell id="AgSntvfH1BYEUNpQKJve-22" value="" style="endArrow=classic;html=1;rounded=0;exitX=0.769;exitY=1;exitDx=0;exitDy=0;exitPerimeter=0;entryX=0.074;entryY=0.567;entryDx=0;entryDy=0;entryPerimeter=0;shadow=1;strokeColor=#006633;" edge="1" parent="1" source="DRDtM36vHlvZ7BX0mpvY-4" target="AgSntvfH1BYEUNpQKJve-4">
          <mxGeometry width="50" height="50" relative="1" as="geometry">
            <mxPoint x="140" y="320" as="sourcePoint" />
            <mxPoint x="360" y="90" as="targetPoint" />
            <Array as="points">
              <mxPoint x="110" y="270" />
              <mxPoint x="200" y="270" />
              <mxPoint x="200" y="120" />
              <mxPoint x="360" y="120" />
            </Array>
          </mxGeometry>
        </mxCell>
        <mxCell id="AgSntvfH1BYEUNpQKJve-23" value="&lt;div&gt;&lt;b&gt;-Passo 1: Acesse a página de redefinição de senha&lt;/b&gt;&lt;/div&gt;&lt;div&gt;&lt;b&gt;&lt;br&gt;&lt;/b&gt;&lt;/div&gt;&lt;div&gt;&lt;b&gt;-Passo 2: Insira seu e-mail&lt;/b&gt;&lt;/div&gt;&lt;div&gt;&lt;b&gt;&lt;br&gt;&lt;/b&gt;&lt;/div&gt;&lt;div&gt;&lt;b&gt;-Passo 3: Siga as instruções para criar uma nova senha&lt;/b&gt;&lt;/div&gt;&lt;b&gt;&amp;nbsp;&amp;nbsp;&amp;nbsp;&amp;nbsp;&amp;nbsp;&amp;nbsp;&amp;nbsp;&amp;nbsp;&amp;nbsp;&amp;nbsp; &lt;/b&gt;" style="whiteSpace=wrap;html=1;shadow=1;strokeColor=#006633;fillColor=#CCFFE6;" vertex="1" parent="1">
          <mxGeometry x="210" y="260" width="120" height="200" as="geometry" />
        </mxCell>
        <mxCell id="AgSntvfH1BYEUNpQKJve-25" value="" style="endArrow=classic;html=1;rounded=0;entryX=0.863;entryY=0.373;entryDx=0;entryDy=0;entryPerimeter=0;shadow=1;strokeColor=#006633;" edge="1" parent="1" target="DRDtM36vHlvZ7BX0mpvY-4">
          <mxGeometry width="50" height="50" relative="1" as="geometry">
            <mxPoint x="210" y="370" as="sourcePoint" />
            <mxPoint x="140" y="350" as="targetPoint" />
            <Array as="points">
              <mxPoint x="130" y="370" />
            </Array>
          </mxGeometry>
        </mxCell>
        <mxCell id="AgSntvfH1BYEUNpQKJve-26" value="&lt;b&gt;&quot;Você pode entrar em contato conosco por e-mail ou telefone.&lt;br&gt;&amp;nbsp;&amp;nbsp;&amp;nbsp; Nosso e-mail de suporte é support@exemplo.com&lt;br&gt;&amp;nbsp;&amp;nbsp;&amp;nbsp;&amp;nbsp;&amp;nbsp;&amp;nbsp;&amp;nbsp;&amp;nbsp;&amp;nbsp;&amp;nbsp; Nosso número de telefone é (123) 456-7890.&quot;&lt;/b&gt;" style="whiteSpace=wrap;html=1;rounded=0;shadow=1;strokeColor=#006633;fillColor=#CCFFE6;" vertex="1" parent="1">
          <mxGeometry x="340" y="310" width="160" height="135" as="geometry" />
        </mxCell>
        <mxCell id="AgSntvfH1BYEUNpQKJve-43" value="" style="edgeStyle=orthogonalEdgeStyle;rounded=0;orthogonalLoop=1;jettySize=auto;html=1;exitX=0.5;exitY=1;exitDx=0;exitDy=0;shadow=1;strokeColor=#006633;" edge="1" parent="1" source="DRDtM36vHlvZ7BX0mpvY-14" target="AgSntvfH1BYEUNpQKJve-42">
          <mxGeometry relative="1" as="geometry">
            <mxPoint x="370" y="624" as="sourcePoint" />
          </mxGeometry>
        </mxCell>
        <mxCell id="AgSntvfH1BYEUNpQKJve-41" value="" style="edgeStyle=orthogonalEdgeStyle;rounded=0;orthogonalLoop=1;jettySize=auto;html=1;exitX=0.5;exitY=1;exitDx=0;exitDy=0;shadow=1;strokeColor=#006633;" edge="1" parent="1" source="DRDtM36vHlvZ7BX0mpvY-16" target="AgSntvfH1BYEUNpQKJve-40">
          <mxGeometry relative="1" as="geometry">
            <mxPoint x="80" y="649.9999999999998" as="sourcePoint" />
          </mxGeometry>
        </mxCell>
        <mxCell id="AgSntvfH1BYEUNpQKJve-45" value="" style="edgeStyle=orthogonalEdgeStyle;rounded=0;orthogonalLoop=1;jettySize=auto;html=1;shadow=1;strokeColor=#006633;" edge="1" parent="1" target="AgSntvfH1BYEUNpQKJve-44">
          <mxGeometry relative="1" as="geometry">
            <mxPoint x="739.9999999999998" y="300" as="sourcePoint" />
          </mxGeometry>
        </mxCell>
        <mxCell id="AgSntvfH1BYEUNpQKJve-39" value="" style="edgeStyle=orthogonalEdgeStyle;rounded=0;orthogonalLoop=1;jettySize=auto;html=1;exitX=0.5;exitY=1;exitDx=0;exitDy=0;shadow=1;strokeColor=#006633;" edge="1" parent="1" source="DRDtM36vHlvZ7BX0mpvY-18" target="AgSntvfH1BYEUNpQKJve-38">
          <mxGeometry relative="1" as="geometry">
            <mxPoint x="220" y="659.9999999999998" as="sourcePoint" />
          </mxGeometry>
        </mxCell>
        <mxCell id="AgSntvfH1BYEUNpQKJve-38" value="&lt;b&gt;Das 9h às 18h&lt;/b&gt;" style="whiteSpace=wrap;html=1;shadow=1;strokeColor=#006633;fillColor=#CCFFE6;" vertex="1" parent="1">
          <mxGeometry x="505" y="330" width="70" height="60" as="geometry" />
        </mxCell>
        <mxCell id="AgSntvfH1BYEUNpQKJve-40" value="&lt;b&gt;Das 10h às 17h.&lt;/b&gt;" style="whiteSpace=wrap;html=1;shadow=1;strokeColor=#006633;fillColor=#CCFFE6;" vertex="1" parent="1">
          <mxGeometry x="590" y="330" width="60" height="60" as="geometry" />
        </mxCell>
        <mxCell id="AgSntvfH1BYEUNpQKJve-42" value="&lt;b&gt;Das 8h às 17h&lt;/b&gt;" style="whiteSpace=wrap;html=1;shadow=1;strokeColor=#006633;fillColor=#CCFFE6;" vertex="1" parent="1">
          <mxGeometry x="665" y="330" width="70" height="60" as="geometry" />
        </mxCell>
        <mxCell id="AgSntvfH1BYEUNpQKJve-44" value="&lt;b&gt;Das 12h às 20h.&lt;/b&gt;" style="whiteSpace=wrap;html=1;shadow=1;strokeColor=#006633;fillColor=#CCFFE6;" vertex="1" parent="1">
          <mxGeometry x="750" y="330" width="70" height="60" as="geometry" />
        </mxCell>
        <mxCell id="DRDtM36vHlvZ7BX0mpvY-2" value="" style="endArrow=classic;html=1;rounded=0;exitX=0.5;exitY=1;exitDx=0;exitDy=0;entryX=0.5;entryY=0;entryDx=0;entryDy=0;shadow=1;strokeColor=#006633;" edge="1" parent="1" source="DRDtM36vHlvZ7BX0mpvY-3" target="AgSntvfH1BYEUNpQKJve-4">
          <mxGeometry width="50" height="50" relative="1" as="geometry">
            <mxPoint x="425" y="60" as="sourcePoint" />
            <mxPoint x="440" y="340" as="targetPoint" />
          </mxGeometry>
        </mxCell>
        <mxCell id="DRDtM36vHlvZ7BX0mpvY-3" value="&lt;b&gt;Bem vindo ao Suporte Técnico!&lt;/b&gt;" style="ellipse;whiteSpace=wrap;html=1;align=center;newEdgeStyle={&quot;edgeStyle&quot;:&quot;entityRelationEdgeStyle&quot;,&quot;startArrow&quot;:&quot;none&quot;,&quot;endArrow&quot;:&quot;none&quot;,&quot;segment&quot;:10,&quot;curved&quot;:1,&quot;sourcePerimeterSpacing&quot;:0,&quot;targetPerimeterSpacing&quot;:0};treeFolding=1;treeMoving=1;shadow=1;strokeColor=#006633;fillColor=#99FFCC;" vertex="1" parent="1">
          <mxGeometry x="350" y="-30" width="150" height="60" as="geometry" />
        </mxCell>
        <mxCell id="DRDtM36vHlvZ7BX0mpvY-4" value="&lt;div&gt;&lt;b&gt;Pressione&amp;nbsp;&lt;/b&gt;&lt;/div&gt;&lt;div&gt;&lt;b&gt;&quot;Enter&quot; para&amp;nbsp;&lt;/b&gt;&lt;/div&gt;&lt;div&gt;&lt;b&gt;continuar&lt;/b&gt;&lt;/div&gt;" style="verticalLabelPosition=middle;verticalAlign=middle;html=1;shape=trapezoid;perimeter=trapezoidPerimeter;whiteSpace=wrap;size=0.23;arcSize=10;flipV=1;labelPosition=center;align=center;shadow=1;strokeColor=#66FFB3;fillColor=#CCFFE6;" vertex="1" parent="1">
          <mxGeometry x="10" y="320" width="130" height="80" as="geometry" />
        </mxCell>
        <mxCell id="DRDtM36vHlvZ7BX0mpvY-5" value="" style="endArrow=classic;html=1;rounded=0;entryX=0.985;entryY=0.171;entryDx=0;entryDy=0;entryPerimeter=0;exitX=-0.017;exitY=0.856;exitDx=0;exitDy=0;exitPerimeter=0;strokeColor=#006633;" edge="1" parent="1" source="DRDtM36vHlvZ7BX0mpvY-25" target="AgSntvfH1BYEUNpQKJve-7">
          <mxGeometry width="50" height="50" relative="1" as="geometry">
            <mxPoint x="350" y="190" as="sourcePoint" />
            <mxPoint x="350" y="210" as="targetPoint" />
            <Array as="points">
              <mxPoint x="390" y="200" />
            </Array>
          </mxGeometry>
        </mxCell>
        <mxCell id="DRDtM36vHlvZ7BX0mpvY-9" value="" style="endArrow=classic;html=1;rounded=0;exitX=0.628;exitY=1.033;exitDx=0;exitDy=0;exitPerimeter=0;shadow=1;strokeColor=#006633;" edge="1" parent="1" source="AgSntvfH1BYEUNpQKJve-14">
          <mxGeometry width="50" height="50" relative="1" as="geometry">
            <mxPoint x="440" y="270" as="sourcePoint" />
            <mxPoint x="440" y="310" as="targetPoint" />
          </mxGeometry>
        </mxCell>
        <mxCell id="DRDtM36vHlvZ7BX0mpvY-10" value="" style="endArrow=classic;html=1;rounded=0;entryX=0.75;entryY=1;entryDx=0;entryDy=0;exitX=0.378;exitY=1.001;exitDx=0;exitDy=0;exitPerimeter=0;shadow=1;strokeColor=#006633;" edge="1" parent="1" source="AgSntvfH1BYEUNpQKJve-26" target="DRDtM36vHlvZ7BX0mpvY-4">
          <mxGeometry width="50" height="50" relative="1" as="geometry">
            <mxPoint x="400" y="460" as="sourcePoint" />
            <mxPoint x="510" y="470" as="targetPoint" />
            <Array as="points">
              <mxPoint x="400" y="480" />
              <mxPoint x="110" y="480" />
              <mxPoint x="108" y="440" />
            </Array>
          </mxGeometry>
        </mxCell>
        <mxCell id="DRDtM36vHlvZ7BX0mpvY-11" value="&lt;b&gt;&lt;br&gt;&lt;/b&gt;&lt;div&gt;&lt;b&gt;&amp;nbsp;&amp;nbsp;&amp;nbsp;&amp;nbsp;&amp;nbsp;&amp;nbsp;&amp;nbsp;&amp;nbsp;&amp;nbsp;&amp;nbsp;&amp;nbsp; Sábado e domingo, digite 4 para ver o horário&lt;/b&gt;&lt;/div&gt;" style="shape=manualInput;whiteSpace=wrap;html=1;shadow=1;strokeColor=#006633;fillColor=#CCFFE6;" vertex="1" parent="1">
          <mxGeometry x="740" y="220" width="80" height="90" as="geometry" />
        </mxCell>
        <mxCell id="DRDtM36vHlvZ7BX0mpvY-12" value="" style="endArrow=classic;html=1;rounded=0;exitX=1;exitY=1;exitDx=0;exitDy=0;entryX=1;entryY=0;entryDx=0;entryDy=0;shadow=1;strokeColor=#006633;" edge="1" parent="1" source="AgSntvfH1BYEUNpQKJve-13" target="DRDtM36vHlvZ7BX0mpvY-11">
          <mxGeometry width="50" height="50" relative="1" as="geometry">
            <mxPoint x="800" y="220" as="sourcePoint" />
            <mxPoint x="850" y="170" as="targetPoint" />
            <Array as="points">
              <mxPoint x="820" y="200" />
            </Array>
          </mxGeometry>
        </mxCell>
        <mxCell id="DRDtM36vHlvZ7BX0mpvY-13" value="" style="endArrow=classic;html=1;rounded=0;entryX=0;entryY=0.5;entryDx=0;entryDy=0;exitX=1;exitY=0.5;exitDx=0;exitDy=0;shadow=1;strokeColor=#006633;" edge="1" parent="1" source="DRDtM36vHlvZ7BX0mpvY-25" target="AgSntvfH1BYEUNpQKJve-13">
          <mxGeometry width="50" height="50" relative="1" as="geometry">
            <mxPoint x="600" y="170" as="sourcePoint" />
            <mxPoint x="570" y="170" as="targetPoint" />
          </mxGeometry>
        </mxCell>
        <mxCell id="DRDtM36vHlvZ7BX0mpvY-14" value="&lt;div&gt;&lt;b&gt;&amp;nbsp;&amp;nbsp;&amp;nbsp;&amp;nbsp;&amp;nbsp;&amp;nbsp;&amp;nbsp;&amp;nbsp;&amp;nbsp;&amp;nbsp;&amp;nbsp;&amp;nbsp;&lt;/b&gt;&lt;/div&gt;&lt;div&gt;&lt;b&gt;&lt;br&gt;&lt;/b&gt;&lt;/div&gt;&lt;div&gt;&lt;b&gt;Terça a sábado, digite 3 para ver o horário&lt;/b&gt;&lt;/div&gt;" style="shape=manualInput;whiteSpace=wrap;html=1;shadow=1;strokeColor=#006633;fillColor=#CCFFE6;" vertex="1" parent="1">
          <mxGeometry x="660" y="220" width="80" height="90" as="geometry" />
        </mxCell>
        <mxCell id="DRDtM36vHlvZ7BX0mpvY-15" value="" style="endArrow=classic;html=1;rounded=0;entryX=1;entryY=0;entryDx=0;entryDy=0;exitX=1.003;exitY=0.954;exitDx=0;exitDy=0;exitPerimeter=0;shadow=1;strokeColor=#006633;" edge="1" parent="1" source="AgSntvfH1BYEUNpQKJve-13" target="DRDtM36vHlvZ7BX0mpvY-14">
          <mxGeometry width="50" height="50" relative="1" as="geometry">
            <mxPoint x="520" y="400" as="sourcePoint" />
            <mxPoint x="570" y="350" as="targetPoint" />
          </mxGeometry>
        </mxCell>
        <mxCell id="DRDtM36vHlvZ7BX0mpvY-16" value="&lt;div&gt;&lt;b&gt;&amp;nbsp;&amp;nbsp;&amp;nbsp;&amp;nbsp;&amp;nbsp;&amp;nbsp;&amp;nbsp;&amp;nbsp;&amp;nbsp;&amp;nbsp;&amp;nbsp;&amp;nbsp;&lt;/b&gt;&lt;/div&gt;&lt;div&gt;&lt;b&gt;&lt;br&gt;&lt;/b&gt;&lt;/div&gt;&lt;div&gt;&lt;b&gt;Segunda a sexta-feira, digite 2 para ver o horário&lt;/b&gt;&lt;/div&gt;" style="shape=manualInput;whiteSpace=wrap;html=1;shadow=1;strokeColor=#006633;fillColor=#CCFFE6;" vertex="1" parent="1">
          <mxGeometry x="580" y="220" width="80" height="90" as="geometry" />
        </mxCell>
        <mxCell id="DRDtM36vHlvZ7BX0mpvY-17" value="" style="endArrow=classic;html=1;rounded=0;exitX=0.333;exitY=0.986;exitDx=0;exitDy=0;exitPerimeter=0;entryX=1;entryY=0;entryDx=0;entryDy=0;shadow=1;strokeColor=#006633;" edge="1" parent="1" source="AgSntvfH1BYEUNpQKJve-13" target="DRDtM36vHlvZ7BX0mpvY-16">
          <mxGeometry width="50" height="50" relative="1" as="geometry">
            <mxPoint x="700" y="320" as="sourcePoint" />
            <mxPoint x="750" y="270" as="targetPoint" />
          </mxGeometry>
        </mxCell>
        <mxCell id="DRDtM36vHlvZ7BX0mpvY-18" value="&lt;div&gt;&lt;b&gt;&lt;br&gt;&lt;/b&gt;&lt;/div&gt;&lt;div&gt;&lt;b&gt;&lt;br&gt;&lt;/b&gt;&lt;/div&gt;&lt;div&gt;&lt;b&gt;Segunda a sexta-feira, digite 1 para ver o horário&lt;/b&gt;&lt;/div&gt;" style="shape=manualInput;whiteSpace=wrap;html=1;shadow=1;strokeColor=#006633;fillColor=#CCFFE6;" vertex="1" parent="1">
          <mxGeometry x="500" y="220" width="80" height="90" as="geometry" />
        </mxCell>
        <mxCell id="DRDtM36vHlvZ7BX0mpvY-20" value="" style="endArrow=classic;html=1;rounded=0;exitX=0;exitY=1;exitDx=0;exitDy=0;entryX=1;entryY=0;entryDx=0;entryDy=0;shadow=1;strokeColor=#006633;" edge="1" parent="1" source="AgSntvfH1BYEUNpQKJve-13" target="DRDtM36vHlvZ7BX0mpvY-18">
          <mxGeometry width="50" height="50" relative="1" as="geometry">
            <mxPoint x="450" y="390" as="sourcePoint" />
            <mxPoint x="500" y="340" as="targetPoint" />
            <Array as="points">
              <mxPoint x="580" y="200" />
            </Array>
          </mxGeometry>
        </mxCell>
        <mxCell id="DRDtM36vHlvZ7BX0mpvY-21" value="" style="endArrow=classic;html=1;rounded=0;exitX=0.5;exitY=1;exitDx=0;exitDy=0;entryX=0.333;entryY=-0.071;entryDx=0;entryDy=0;entryPerimeter=0;shadow=1;strokeColor=#00994D;" edge="1" parent="1" source="AgSntvfH1BYEUNpQKJve-38" target="DRDtM36vHlvZ7BX0mpvY-4">
          <mxGeometry width="50" height="50" relative="1" as="geometry">
            <mxPoint x="360" y="390" as="sourcePoint" />
            <mxPoint x="600" y="500" as="targetPoint" />
            <Array as="points">
              <mxPoint x="540" y="520" />
              <mxPoint x="53" y="520" />
            </Array>
          </mxGeometry>
        </mxCell>
        <mxCell id="DRDtM36vHlvZ7BX0mpvY-22" value="" style="endArrow=none;html=1;rounded=0;entryX=0.5;entryY=1;entryDx=0;entryDy=0;shadow=1;strokeColor=#00994D;" edge="1" parent="1" target="AgSntvfH1BYEUNpQKJve-40">
          <mxGeometry width="50" height="50" relative="1" as="geometry">
            <mxPoint x="540" y="520" as="sourcePoint" />
            <mxPoint x="450" y="340" as="targetPoint" />
            <Array as="points">
              <mxPoint x="620" y="520" />
            </Array>
          </mxGeometry>
        </mxCell>
        <mxCell id="DRDtM36vHlvZ7BX0mpvY-23" value="" style="endArrow=none;html=1;rounded=0;entryX=0.5;entryY=1;entryDx=0;entryDy=0;shadow=1;strokeColor=#00994D;" edge="1" parent="1" target="AgSntvfH1BYEUNpQKJve-42">
          <mxGeometry width="50" height="50" relative="1" as="geometry">
            <mxPoint x="620" y="520" as="sourcePoint" />
            <mxPoint x="450" y="340" as="targetPoint" />
            <Array as="points">
              <mxPoint x="700" y="520" />
            </Array>
          </mxGeometry>
        </mxCell>
        <mxCell id="DRDtM36vHlvZ7BX0mpvY-24" value="" style="endArrow=none;html=1;rounded=0;entryX=0.5;entryY=1;entryDx=0;entryDy=0;shadow=1;strokeColor=#00994D;" edge="1" parent="1" target="AgSntvfH1BYEUNpQKJve-44">
          <mxGeometry width="50" height="50" relative="1" as="geometry">
            <mxPoint x="700" y="520" as="sourcePoint" />
            <mxPoint x="450" y="340" as="targetPoint" />
            <Array as="points">
              <mxPoint x="785" y="520" />
            </Array>
          </mxGeometry>
        </mxCell>
        <mxCell id="DRDtM36vHlvZ7BX0mpvY-25" value="&lt;div&gt;&lt;b&gt;&lt;br&gt;&lt;/b&gt;&lt;/div&gt;&lt;div&gt;&lt;b&gt;Escolha uma &lt;br&gt;&lt;/b&gt;&lt;/div&gt;&lt;div&gt;&lt;b&gt;opção: (1/2/3/4/5)&lt;br&gt;&lt;/b&gt;&lt;/div&gt;" style="shape=manualInput;whiteSpace=wrap;html=1;shadow=1;strokeColor=#006633;fillColor=#CCFFE6;" vertex="1" parent="1">
          <mxGeometry x="385" y="125" width="80" height="90" as="geometry" />
        </mxCell>
        <mxCell id="DRDtM36vHlvZ7BX0mpvY-26" value="" style="endArrow=classic;html=1;rounded=0;exitX=0.5;exitY=1;exitDx=0;exitDy=0;shadow=1;strokeColor=#006633;" edge="1" parent="1" source="AgSntvfH1BYEUNpQKJve-4">
          <mxGeometry width="50" height="50" relative="1" as="geometry">
            <mxPoint x="410" y="300" as="sourcePoint" />
            <mxPoint x="426" y="140" as="targetPoint" />
          </mxGeometry>
        </mxCell>
        <mxCell id="DRDtM36vHlvZ7BX0mpvY-27" value="&lt;div&gt;&lt;br&gt;&lt;/div&gt;&lt;div&gt;&lt;b&gt;&amp;nbsp;&amp;nbsp;&amp;nbsp;&amp;nbsp;&amp;nbsp;&amp;nbsp;&amp;nbsp; Opção inválida. Por favor digite uma opção válida.&lt;/b&gt;&lt;/div&gt;" style="shape=manualInput;whiteSpace=wrap;html=1;shadow=1;strokeColor=#006633;fillColor=#CCFFE6;" vertex="1" parent="1">
          <mxGeometry x="820" y="220" width="80" height="90" as="geometry" />
        </mxCell>
        <mxCell id="DRDtM36vHlvZ7BX0mpvY-28" value="" style="endArrow=none;html=1;rounded=0;entryX=0.5;entryY=1;entryDx=0;entryDy=0;shadow=1;strokeColor=#00994D;" edge="1" parent="1" target="DRDtM36vHlvZ7BX0mpvY-27">
          <mxGeometry width="50" height="50" relative="1" as="geometry">
            <mxPoint x="780" y="520" as="sourcePoint" />
            <mxPoint x="520" y="250" as="targetPoint" />
            <Array as="points">
              <mxPoint x="860" y="520" />
            </Array>
          </mxGeometry>
        </mxCell>
        <mxCell id="DRDtM36vHlvZ7BX0mpvY-29" value="" style="endArrow=classic;html=1;rounded=0;exitX=1;exitY=0.5;exitDx=0;exitDy=0;entryX=1;entryY=0;entryDx=0;entryDy=0;shadow=1;strokeColor=#006633;" edge="1" parent="1" source="AgSntvfH1BYEUNpQKJve-13" target="DRDtM36vHlvZ7BX0mpvY-27">
          <mxGeometry width="50" height="50" relative="1" as="geometry">
            <mxPoint x="470" y="300" as="sourcePoint" />
            <mxPoint x="520" y="250" as="targetPoint" />
            <Array as="points">
              <mxPoint x="900" y="170" />
            </Array>
          </mxGeometry>
        </mxCell>
      </root>
    </mxGraphModel>
  </diagram>
</mxfile>
